<svg version="1.2" xmlns="http://www.w3.org/2000/svg" viewBox="0 0 512 512" width="512" height="512">
	<title>keycloak-logo</title>
	<style>
		.s0 { fill: #9bd6f0;stroke: #05397b;stroke-miterlimit:100;stroke-width: 18 } 
		.s1 { fill: #6ca7bf;stroke: #05397b;stroke-miterlimit:100;stroke-width: 18 } 
	</style>
	<g id="Cloak">
		<path id="Outer Cloak" class="s0" d="m23 446.3c150.7-160.1 51.4-294.2 232.9-294.2 172.1 0 77.9 133 239.1 294.2-26.4 10.1-49.8 19-70.8 26.6-100.7-188.8-231.9-213.3-325.3-2.7-21.9-6.2-42.7-12.4-75.9-23.9z"/>
		<path id="Inner Cloak" class="s1" d="m255.9 180.1c-74.4 0-183 354.6-158.1 306.8 58.3-91.5 107.6-22.9 158.1-22.9 48.7 0 107.1-61.3 167.4 25 17.9 25.5-97.2-308.9-167.4-308.9z"/>
		<path id="Outer Hood" class="s0" d="m255.9 180.1c-42.6 0-77-24-77-66.5 0-42.6 34.4-94.6 77-94.6 42.5 0 76.9 52 76.9 94.6 0 42.5-34.4 66.5-76.9 66.5z"/>
		<path id="Inner Hood" class="s1" d="m255.9 176.7c-26.8 0-43-40.6-43-68.1 0-27.5 16.2-55.7 43-55.7 26.7 0 42.1 28.2 42.1 55.7 0 27.5-15.4 68.1-42.1 68.1z"/>
	</g>
</svg>