<svg version="1.2" xmlns="http://www.w3.org/2000/svg" viewBox="0 0 599 520" width="599" height="520"><style>.a{fill:#f2f2f2}.b{fill:#3f3d56}.c{fill:#e6e7e8}.d{fill:#9bd6f0;stroke:#05397b;stroke-miterlimit:100;stroke-width:7.5}.e{fill:#6ca7bf;stroke:#05397b;stroke-miterlimit:100;stroke-width:7.5}.f{fill:#fff}.g{fill:#a0616a}.h{fill:#2f2e41}.i{fill:#ccc}</style><path class="a" d="m554 481.3l16.1-5.1q0.8-3.2 1.2-6.5 0.3-3.3 0.3-6.6-0.1-3.3-0.5-6.6-0.5-3.3-1.3-6.5c-6.5 14.4-25.5 17.9-36.3 29.4q-2.6 2.7-4.4 5.9-1.8 3.2-2.9 6.7-1.1 3.6-1.4 7.2-0.3 3.7 0.3 7.4l-3.4 11.5c3.9-0.4 7.8-1.1 11.6-2.3 3.8-1.2 7.4-2.7 10.9-4.7 3.4-2 6.7-4.3 9.6-6.9 2.9-2.7 5.6-5.7 7.9-8.9q1-1.3 1.8-2.8 0.9-1.4 1.7-2.9 0.8-1.5 1.4-3 0.7-1.5 1.3-3.1c-6.9-0.7-13.9-2.2-13.9-2.2z"/><path class="a" d="m536.8 460.1l12.2-11.8q-0.8-3.2-2-6.3-1.1-3.1-2.7-6.1-1.5-2.9-3.3-5.7-1.9-2.7-4.1-5.2c0.6 15.8-14.8 27.4-19.4 42.5q-1 3.6-1.2 7.2-0.3 3.7 0.3 7.4 0.6 3.6 2 7 1.4 3.5 3.5 6.5l2.1 11.8c3.4-2.1 6.6-4.5 9.4-7.2 2.9-2.8 5.4-5.8 7.7-9.1 2.2-3.3 4-6.8 5.5-10.5 1.4-3.7 2.5-7.5 3.1-11.4q0.2-1.7 0.4-3.4 0.1-1.6 0.2-3.3 0-1.7 0-3.3-0.1-1.7-0.3-3.4c-6.4 2.5-13.4 4.3-13.4 4.3z"/><path class="b" d="m456.1 34.5h-454.3c-0.5 0-1-0.2-1.3-0.6-0.3-0.3-0.5-0.7-0.5-1.2 0-0.5 0.2-0.9 0.5-1.3 0.3-0.3 0.8-0.5 1.3-0.5h454.3c0.4 0 0.9 0.2 1.2 0.5 0.3 0.4 0.5 0.8 0.5 1.3 0 0.5-0.2 0.9-0.5 1.2-0.3 0.4-0.8 0.6-1.2 0.6z"/><path class="b" d="m32.7 21.6c-5.9 0-10.6-4.8-10.6-10.8 0-6 4.7-10.8 10.6-10.8 5.8 0 10.6 4.8 10.6 10.8 0 6-4.8 10.8-10.6 10.8z"/><path class="b" d="m69.3 21.6c-5.9 0-10.6-4.8-10.6-10.8 0-6 4.7-10.8 10.6-10.8 5.8 0 10.6 4.8 10.6 10.8 0 6-4.8 10.8-10.6 10.8z"/><path class="b" d="m105.8 21.6c-5.8 0-10.5-4.8-10.5-10.8 0-6 4.7-10.8 10.5-10.8 5.9 0 10.6 4.8 10.6 10.8 0 6-4.7 10.8-10.6 10.8z"/><path class="b" d="m434 2.7h-25.9c-0.6 0-1 0.2-1.4 0.6-0.4 0.3-0.6 0.8-0.6 1.3 0 0.6 0.2 1.1 0.6 1.4 0.4 0.4 0.8 0.6 1.4 0.6h25.9c0.6 0 1-0.2 1.4-0.6 0.4-0.3 0.6-0.8 0.6-1.4 0-0.5-0.2-1-0.6-1.3-0.4-0.4-0.8-0.6-1.4-0.6z"/><path class="b" d="m434 10.1h-25.9c-0.6 0-1 0.2-1.4 0.6-0.4 0.3-0.6 0.8-0.6 1.3 0 0.5 0.2 1 0.6 1.4 0.4 0.4 0.8 0.6 1.4 0.6h25.9c0.6 0 1-0.2 1.4-0.6 0.4-0.4 0.6-0.9 0.6-1.4 0-0.5-0.2-1-0.6-1.3-0.4-0.4-0.8-0.6-1.4-0.6z"/><path class="b" d="m434 17.4h-25.9c-0.6 0.1-1 0.3-1.4 0.6-0.4 0.4-0.6 0.9-0.6 1.4 0 0.5 0.2 1 0.6 1.4 0.4 0.4 0.8 0.6 1.4 0.6h25.9c0.6 0 1-0.2 1.4-0.6 0.4-0.4 0.6-0.9 0.6-1.4 0-0.5-0.2-1-0.6-1.4-0.4-0.3-0.8-0.5-1.4-0.6z"/><path class="c" d="m35.2 107.9c-7.2 0-13.1-5.9-13.1-13.1 0-7.2 5.9-13.1 13.1-13.1 7.2 0 13.1 5.9 13.1 13.1 0 7.2-5.9 13.1-13.1 13.1z"/><path class="c" d="m368.5 123.8h-342.5c-1 0-2-0.4-2.8-1.2-0.7-0.7-1.1-1.7-1.1-2.7 0-1.1 0.4-2 1.1-2.8 0.8-0.7 1.8-1.1 2.8-1.1h342.5c1 0 2 0.4 2.8 1.1 0.7 0.8 1.1 1.7 1.1 2.8 0 1-0.4 2-1.1 2.7-0.8 0.8-1.8 1.2-2.8 1.2z"/><path class="c" d="m278.7 139.2h-252.7c-1 0-2-0.4-2.8-1.2-0.7-0.7-1.1-1.7-1.1-2.7 0-1.1 0.4-2 1.1-2.8 0.8-0.7 1.8-1.1 2.8-1.1h252.7c1 0 2 0.4 2.7 1.1 0.8 0.8 1.2 1.7 1.2 2.8 0 1-0.4 2-1.2 2.7-0.7 0.8-1.7 1.2-2.7 1.2z"/><path class="c" d="m35.2 312.2c-7.2 0-13.1-5.9-13.1-13.1 0-7.2 5.9-13.1 13.1-13.1 7.2 0 13.1 5.9 13.1 13.1 0 7.2-5.9 13.1-13.1 13.1z"/><path class="c" d="m368.5 328.1h-342.5c-1 0-2-0.4-2.8-1.2-0.7-0.7-1.1-1.7-1.1-2.7 0-1 0.4-2 1.1-2.8 0.8-0.7 1.8-1.1 2.8-1.1h342.5q0.8 0 1.6 0.4 0.7 0.3 1.3 0.9 0.6 0.6 0.9 1.3 0.3 0.8 0.3 1.6 0 0.8-0.4 1.4-0.3 0.7-0.9 1.2-0.6 0.5-1.3 0.8-0.7 0.2-1.5 0.2z"/><path class="c" d="m278.7 343.5h-252.7c-1 0-2-0.4-2.8-1.2-0.7-0.7-1.1-1.7-1.1-2.7 0-1 0.4-2 1.1-2.8 0.8-0.7 1.8-1.1 2.8-1.1h252.7c1 0 2 0.4 2.7 1.1 0.8 0.8 1.2 1.8 1.2 2.8 0 1-0.4 2-1.2 2.7-0.7 0.8-1.7 1.2-2.7 1.2z"/><path class="c" d="m35.2 202.3c-7.2 0-13.1-5.8-13.1-13.1 0-7.2 5.9-13 13.1-13 7.2 0 13.1 5.8 13.1 13 0 7.3-5.9 13.1-13.1 13.1z"/><path class="c" d="m368.5 218.2h-342.5c-1 0-2-0.4-2.8-1.1-0.7-0.7-1.1-1.7-1.1-2.8 0-1 0.4-2 1.1-2.7 0.8-0.8 1.8-1.2 2.8-1.2h342.5c1 0 2 0.4 2.8 1.2 0.7 0.7 1.1 1.7 1.1 2.7 0 1.1-0.4 2.1-1.1 2.8-0.8 0.7-1.8 1.1-2.8 1.1z"/><path class="c" d="m320.8 233.6h-294.8c-1 0-2-0.4-2.8-1.1-0.7-0.7-1.1-1.7-1.1-2.8 0-1 0.4-2 1.1-2.7 0.8-0.8 1.8-1.2 2.8-1.2h294.8c1.1 0 2 0.4 2.8 1.2 0.7 0.7 1.1 1.7 1.1 2.7 0 1.1-0.4 2.1-1.1 2.8-0.8 0.7-1.7 1.1-2.8 1.1z"/><path class="c" d="m300.8 249h-274.8c-1 0-2-0.4-2.8-1.1-0.7-0.7-1.1-1.7-1.1-2.8 0-1 0.4-2 1.1-2.7 0.8-0.8 1.8-1.2 2.8-1.2h274.8c1 0 2 0.4 2.8 1.2 0.7 0.7 1.1 1.7 1.1 2.7 0 1.1-0.4 2.1-1.1 2.8-0.8 0.7-1.8 1.1-2.8 1.1z"/><path class="d" d="m13 470.3c124.2-132 42.4-242.6 192-242.6 141.9 0 64.2 109.7 197.1 242.6-21.8 8.3-41 15.6-58.4 21.9-83-155.7-191.1-175.9-268.1-2.2-18.1-5.2-35.2-10.3-62.6-19.7z"/><path class="e" d="m205 250.8c-61.3 0-150.9 292.3-130.3 252.9 48-75.4 88.7-18.9 130.3-18.9 40.1 0 88.3-50.5 138 20.7 14.8 21-80.1-254.7-138-254.7z"/><path class="d" d="m205 250.8c-35.1 0-63.5-19.8-63.5-54.8 0-35.1 28.4-78 63.5-78 35 0 63.4 42.9 63.4 78 0 35-28.4 54.8-63.4 54.8z"/><path class="e" d="m205 248c-22.1 0-35.5-33.5-35.5-56.1 0-22.7 13.4-46 35.5-46 22 0 34.7 23.3 34.7 46 0 22.6-12.7 56.1-34.7 56.1z"/><path class="b" d="m306.5 421.4c-53.6 0-96.9-43.4-96.9-97 0-53.6 43.3-96.9 96.9-96.9 53.6 0 96.9 43.3 96.9 96.9 0 53.6-43.3 97-96.9 97z"/><path class="b" d="m306.4 358.2c-7.7 0-13.9-6.1-13.9-13.8 0-7.7 6.2-13.9 13.9-13.9 7.6 0 13.8 6.2 13.8 13.9 0 7.7-6.2 13.8-13.8 13.8z"/><path class="b" d="m306.4 350.8c-3.6 0-6.4-2.9-6.4-6.4 0-3.5 2.8-6.4 6.4-6.4 3.5 0 6.4 2.9 6.4 6.4 0 3.5-2.9 6.4-6.4 6.4z"/><path fill-rule="evenodd" class="f" d="m332.1 375.2h-51.2c-2.5 0-5-0.5-7.3-1.4-2.3-1-4.4-2.4-6.2-4.2-1.8-1.8-3.2-3.9-4.1-6.2-1-2.3-1.5-4.8-1.5-7.3v-23.4c0-2.5 0.5-5 1.5-7.3 0.9-2.4 2.3-4.5 4.1-6.2 1.8-1.8 3.9-3.2 6.2-4.2 2.3-0.9 4.8-1.4 7.3-1.4h51.2c2.5 0 5 0.5 7.3 1.4 2.3 1 4.4 2.4 6.2 4.2 1.7 1.7 3.1 3.8 4.1 6.2 1 2.3 1.5 4.8 1.5 7.3v23.4c0 2.5-0.5 5-1.5 7.3-1 2.3-2.4 4.4-4.1 6.2-1.8 1.8-3.9 3.2-6.2 4.2-2.3 0.9-4.8 1.4-7.3 1.4zm-51.2-59.6c-2.2 0-4.4 0.4-6.5 1.3-2.1 0.8-4 2.1-5.6 3.7-1.6 1.6-2.8 3.5-3.7 5.5-0.8 2.1-1.3 4.3-1.3 6.6v23.4c0 2.3 0.5 4.5 1.3 6.6 0.9 2 2.1 3.9 3.7 5.5 1.6 1.6 3.5 2.9 5.6 3.7 2.1 0.9 4.3 1.3 6.5 1.3h51.2c2.2 0 4.4-0.4 6.5-1.3 2.1-0.8 4-2.1 5.6-3.7 1.5-1.6 2.8-3.5 3.7-5.5 0.8-2.1 1.3-4.3 1.3-6.6v-23.4c0-2.3-0.5-4.5-1.3-6.6-0.9-2-2.2-3.9-3.7-5.5-1.6-1.6-3.5-2.9-5.6-3.7-2.1-0.9-4.3-1.3-6.5-1.3z"/><path class="b" d="m277.9 362.5h45.4c2.3 0 4.7-0.5 6.9-1.4 2.1-0.9 4.1-2.2 5.8-3.9 1.6-1.6 3-3.6 3.9-5.8 0.9-2.2 1.3-4.5 1.3-6.9v-19.6q0-0.8 0-1.6-0.1-0.8-0.3-1.6-0.1-0.8-0.3-1.6-0.3-0.8-0.6-1.5 1.7 1.2 3 2.8 1.4 1.6 2.3 3.5 0.9 1.8 1.4 3.9 0.5 2 0.5 4.1v19.6c0 2.3-0.5 4.7-1.4 6.8-0.9 2.2-2.2 4.2-3.9 5.9-1.6 1.6-3.6 3-5.8 3.9-2.2 0.9-4.5 1.3-6.9 1.3h-45.4q-2.7 0-5.3-0.8-2.6-0.8-4.8-2.4-2.3-1.5-4-3.7-1.6-2.1-2.6-4.7 1.1 0.9 2.4 1.6 1.3 0.7 2.7 1.2 1.4 0.4 2.8 0.7 1.4 0.2 2.9 0.2z"/><path class="g" d="m416.9 506.5h-11.1l-5.4-43h16.5z"/><path class="h" d="m417.3 518.2h-34.3v-0.5c0-1.7 0.3-3.4 1-5.1 0.7-1.6 1.7-3.1 2.9-4.3 1.3-1.2 2.7-2.2 4.3-2.9 1.7-0.7 3.4-1 5.2-1l6.2-4.8 11.7 4.8h3z"/><path class="g" d="m495.8 506.5h11.2l5.3-43h-16.5z"/><path class="h" d="m495.4 518.2h34.3v-0.5c0-1.7-0.3-3.4-1-5.1-0.6-1.6-1.6-3.1-2.9-4.3-1.2-1.2-2.7-2.2-4.3-2.9-1.6-0.7-3.4-1-5.1-1l-6.3-4.8-11.7 4.8h-3z"/><path class="h" d="m400 431.9c0.1-2.5 1.4-16 1.4-16l3.2-28.8 5.5-76.4 0.4-5 28.9-5.5 19.8-9.5 23.6 7.5 18.3 6.9c0 0 0 2.9 0.2 6.5 0.1 4.6 0.5 10.3 1.3 11.8 1.3 2.6 0.9 16.7 0.9 16.7 0 0 1.3 28.6 3 31.8 1.6 3.1 1.9 9.6 1.5 10.9-0.5 1.3 1.6 35.7 1.6 35.7 0 0 5.5 60.8 2 70-3.4 9.2-16.4 3.2-16.4 3.2 0 0 0.6-2.5-3.1-3.7-3.8-1.1-15.3-87.3-15.3-87.3 0 0-2.1-17.7-4.1-22.8-1.9-5-3.7-19.3-3.7-19.3 0 0-12.1-23.5-12.3-28.8 0 0-1.6-4.9-3.1 0.5-1.5 5.4-5.9 18.3-5.9 18.3l-4.3 15.9-5.1 23.7-3.2 20c0 0-4.9 26.5-5.7 27.6-0.8 1.2 0 25.4 0 25.4 0 0-3.8 20.6-9.2 24.2-5.4 3.6-19.6 0.1-19.6 0.1 0 0-0.8-51.1-0.6-53.6z"/><path class="h" d="m412.3 236.1l6.5 19.4-8 9.5 3.5 3.6-2.6 5.1-6.7 53.3 36.9 14 12.4-15.6 9.8 15.6 42.7-10.4-10.9-68v-4.5l-3.1-8.6v-18.2l8.2-54.1-24.3-8.5-11.5-9.1-3.8 12.9-16-2.9-0.4-9.7-12.2 11.6-10.3 2.9-12.3 2.8-1.6 3.9 3.2-0.7-0.5 51z"/><path class="g" d="m401.3 307.1l6.2-60 1.6-24.7-17.3-3.1c0 0 0.7 17.7-1.6 27.6-2.3 9.8-0.3 58.9-0.2 60.2-2.6 2.3-3.5 6-2.2 9.3 1.2 3.3 4.4 5.4 7.9 5.4 3.4 0 6.6-2.1 7.8-5.4 1.3-3.3 0.4-7-2.2-9.3z"/><path class="h" d="m384.4 259.6l4.8 0.9 16.5 3.5 1 0.2 1.9-7.8 2.3-2.4 4.3-22.6 0.2-1.2 6.5-13.9 4.5-41.9-16.7 3q-0.1 0.1-0.3 0.3c-2.4 2.7-4.1 6.5-6.9 10.3-9.1 12.5-16.1 42.7-15.9 59.2q0 0.4-0.6 0.9-1.1 1-1.9 2.4-0.7 1.5-0.9 3-0.3 1.6 0 3.1 0.4 1.6 1.2 3z"/><path class="g" d="m509.1 307.1l-6.2-60-1.6-24.7 17.3-3.1c0 0-0.7 17.7 1.6 27.6 2.2 9.8 0.3 58.9 0.2 60.2 2.6 2.3 3.5 6 2.2 9.3-1.2 3.3-4.4 5.4-7.9 5.4-3.5 0-6.6-2.1-7.8-5.4-1.3-3.3-0.4-7 2.2-9.3z"/><path class="h" d="m526 259.6l-4.8 0.9-16.5 3.5-1 0.2-1.9-7.8-2.3-2.4-4.3-22.6-0.2-1.2-6.5-13.9 1.4-41.9 10.8 3q0.1 0.1 0.3 0.3c2.4 2.7 4.1 6.5 6.9 10.3 9.1 12.5 16.1 42.7 15.9 59.2q0 0.4 0.6 0.9 1.1 1 1.9 2.4 0.7 1.5 0.9 3 0.3 1.6 0 3.1-0.4 1.6-1.2 3z"/><path class="b" d="m437.1 180.6l7.9-20.7 20.2-0.3 6.6 21 24 134.1c0 0-73.5 20.5-72.8-4.1 0.8-25.9 4.4-60.3 4.4-60.3z"/><path class="g" d="m454.6 154.1c-13.1 0-23.7-10.6-23.7-23.7 0-13.1 10.6-23.7 23.7-23.7 13.1 0 23.7 10.6 23.7 23.7 0 13.1-10.6 23.7-23.7 23.7z"/><path class="h" d="m429.5 113.2c3.9-4.2 8.7-11.9 23.3-15.1 18.1-4 26.7 12.3 22.1 12.6 13.3 4.1 4.8 31.6 0.9 29.3q0 0-0.1-0.1-1.5-1.1-2.8-2.5-1.3-1.4-2.2-3.1-1-1.6-1.6-3.5-0.6-1.8-0.9-3.7l-0.7-6.5c-0.1 5.3-5.5 6-11.1 4.1q0.3-0.9 0.8-1.7 0.4-0.8 1.1-1.4 0.6-0.6 1.4-1.1 0.8-0.4 1.7-0.7-1.5 1.3-3.1 2.4-1.6 1-3.4 1.8-1.8 0.8-3.7 1.3-1.9 0.4-3.8 0.6 0.2-1 0.6-1.9 0.4-1 1-1.8 0.6-0.8 1.4-1.5 0.7-0.7 1.6-1.2l-0.2-0.2q-0.8 0.7-1.7 1.3-0.9 0.6-1.8 1.1-0.9 0.6-1.9 1-0.9 0.4-1.9 0.8c-3.1 0.9-6.8 0.4-8.8-2q-0.3-0.3-0.4-0.5-0.2-0.3-0.4-0.6-0.1-0.3-0.3-0.6-0.1-0.3-0.2-0.6c0.5 4.2-2.4 9-4.6 8.2-1.8-0.3-2.8-11.4-0.3-14.2z"/><path class="i" d="m598.4 518.2q0 0.2-0.1 0.4-0.1 0.3-0.3 0.4-0.1 0.2-0.4 0.3-0.2 0.1-0.4 0.1h-280.3c-0.3 0-0.6-0.2-0.8-0.4-0.3-0.2-0.4-0.5-0.4-0.8 0-0.3 0.1-0.6 0.4-0.9 0.2-0.2 0.5-0.3 0.8-0.3h280.3q0.2 0 0.4 0.1 0.3 0.1 0.4 0.2 0.2 0.2 0.3 0.4 0.1 0.2 0.1 0.5z"/><path class="b" d="m307.3 271.9c-9.5 0-17.8 4.3-22.6 10.7q1.9-1.4 4-2.4 2.1-1.1 4.3-1.8 2.2-0.7 4.5-1 2.3-0.4 4.6-0.4c14.7 0 26.6 10.3 26.6 22.9v10.6h5.2v-15.7c0-12.7-11.9-22.9-26.6-22.9z"/><path fill-rule="evenodd" class="f" d="m337.5 315.8h-62v-18.2c0-14.7 13.9-26.6 31-26.6 17.1 0 31 11.9 31 26.6zm-60-2h58v-16.2c0-13.6-13-24.7-29-24.7-16 0-29 11.1-29 24.7z"/><path fill-rule="evenodd" class="f" d="m322.4 308.9h-31.8q-1 0-2-0.4-1-0.4-1.8-1.2-0.7-0.8-1.1-1.7-0.4-1-0.4-2.1v-7.3c0-10.1 9.5-18.3 21.2-18.3 11.7 0 21.2 8.2 21.2 18.3v7.3q0 1.1-0.4 2.1-0.4 0.9-1.1 1.7-0.8 0.8-1.8 1.2-1 0.4-2 0.4zm-15.9-29c-10.6 0-19.2 7.3-19.2 16.3v7.3q0 0.7 0.2 1.3 0.3 0.6 0.7 1.1 0.5 0.5 1.1 0.7 0.7 0.3 1.3 0.3h31.8q0.6 0 1.2-0.3 0.7-0.2 1.1-0.7 0.5-0.5 0.8-1.1 0.2-0.6 0.2-1.3v-7.3c0-9-8.6-16.3-19.2-16.3z"/></svg>