<svg version="1.2" xmlns="http://www.w3.org/2000/svg" viewBox="-20 -20 242 205" width="202" height="165">
    <path fill="#e1af35" class="brace"
          d="m193.6 90.2c-1.8 0-3.6-0.6-5-1.8l-12.7-10.4q-0.3-0.2-0.5-0.5c-4.6-4.6-7.1-10.6-7.1-17v-36.1c0-4.5-3.7-8.3-8.3-8.3h-17.4c-4.3 0-7.8-3.5-7.8-7.8 0-4.4 3.5-7.9 7.8-7.9h17.4c13.3 0 24.1 10.7 24.1 24v36.1c0 2 0.8 4.1 2.2 5.6l12.3 10.1c3.4 2.8 3.8 7.8 1.1 11.1-1.6 1.9-3.9 2.9-6.1 2.9z"/>
    <path fill="#e1af35" class="brace"
          d="m160 164.3h-17.4c-4.3 0-7.8-3.6-7.8-7.9 0-4.4 3.5-7.9 7.8-7.9h17.4c4.6 0 8.3-3.7 8.3-8.3v-36c0-6.5 2.5-12.5 7.1-17.1q0.2-0.2 0.5-0.5l12.7-10.4c3.3-2.8 8.3-2.3 11.1 1.1 2.7 3.4 2.3 8.3-1.1 11.1l-12.3 10.1c-1.4 1.6-2.2 3.6-2.2 5.7v36c0 13.3-10.8 24.1-24.1 24.1z"/>
    <path fill="#e1af35" class="brace"
          d="m7.8 90.2c-2.2 0-4.5-1-6.1-2.9-2.7-3.3-2.3-8.3 1.1-11.1l12.3-10.1c1.4-1.5 2.2-3.6 2.2-5.6v-36.1c0-13.3 10.8-24 24.1-24h17.4c4.3 0 7.9 3.5 7.9 7.9 0 4.3-3.6 7.8-7.9 7.8h-17.4c-4.6 0-8.3 3.8-8.3 8.3v36.1c0 6.4-2.5 12.4-7.1 17q-0.2 0.3-0.5 0.5l-12.7 10.4c-1.4 1.2-3.2 1.8-5 1.8z"/>
    <path fill="#e1af35" class="brace"
          d="m58.8 164.3h-17.4c-13.3 0-24.1-10.8-24.1-24.1v-36c0-2.1-0.8-4.1-2.2-5.7l-12.3-10.1c-3.4-2.8-3.8-7.7-1.1-11.1 2.8-3.4 7.8-3.9 11.1-1.1l12.7 10.4q0.3 0.3 0.5 0.5c4.6 4.6 7.1 10.6 7.1 17.1v36c0 4.6 3.7 8.3 8.3 8.3h17.4c4.3 0 7.9 3.5 7.9 7.9 0 4.3-3.6 7.9-7.9 7.9z"/>
    <path fill="#fff" class="dot"
          d="m105.6 104.3c0 2.6-2.1 4.7-4.7 4.7-2.6 0-4.6-2.1-4.6-4.7 0-2.5 2-4.6 4.6-4.6 2.6 0 4.7 2.1 4.7 4.6z"/>
    <path fill="#fff" class="bowtie"
          d="m147.8 65.8v30.7c0 7.8-9.2 12.7-16.6 8.8l-30.3-15.9-30.3 15.9c-7.4 3.9-16.6-1-16.6-8.8v-30.7c0-7.8 9.2-12.7 16.6-8.8l30.3 15.9 30.3-15.9c7.4-3.9 16.6 1 16.6 8.8z"/>
</svg>
